#!OML:ASF I:\Actors\actors\Patient Classification 2\Patient 1\Session 1\actor1.ASF
:FULLY-SPECIFIED
:DEGREES
652
root -0.592258 18.6645 5.90569 1.34446 -2.102 -2.48553
lowerback 0.858512 1.13034 -0.259417
upperback -3.50265 1.52626 0.67072
thorax -4.11085 0.781044 0.768417
lowerneck -9.37326 -2.58237 -2.96015
upperneck 31.4341 -4.07776 3.06047
head 11.9678 -1.81396 1.13889
rclavicle -2.98177e-015 6.16232e-015
rhumerus -37.4409 51.3589 -73.8075
rradius 101.927
rwrist -30.8839
rhand 11.8303 -41.3251
rfingers 7.12502
rthumb 36.8602 -67.4256
lclavicle -2.98177e-015 6.16232e-015
lhumerus -31.2358 -45.608 77.1925
lradius 100.323
lwrist 47.5149
lhand 1.63218 -3.63812
lfingers 7.12502
lthumb 27.1528 24.4285
rfemur 0 0 0
rtibia 0
rfoot 0 0
rtoes 0
lfemur -2.78991 -5.37312 -12.1806
ltibia 22.1388
lfoot -25.7871 17.3436
ltoes -54.5707
653
root -0.591161 18.6656 5.90158 1.35495 -1.9393 -2.47657
lowerback 0.772588 1.04432 -0.306711
upperback -3.46602 1.41073 0.702608
thorax -4.02414 0.725429 0.834958
lowerneck -9.62987 -2.54414 -3.08978
upperneck 31.2107 -4.02675 3.21285
head 11.9356 -1.7857 1.22085
rclavicle 9.21864e-015 9.93923e-016
rhumerus -37.7331 50.3542 -74.7583
rradius 97.9749
rwrist -28.3809
rhand 8.8023 -40.6263
rfingers 7.12502
rthumb 33.9895 -67.4124
lclavicle 9.21864e-015 9.93923e-016
lhumerus -32.2298 -44.4474 78.7118
lradius 96.8311
lwrist 43.2187
lhand -0.131277 -3.93476
lfingers 7.12502
lthumb 25.4646 24.384
rfemur 0 0 0
rtibia 0
rfoot 0 0
rtoes 0
lfemur -2.869 -5.46867 -12.1804
ltibia 22.1535
lfoot -25.7335 17.2968
ltoes -54.5721
654
root -0.590976 18.6633 5.9029 1.29053 -1.94105 -2.50473
lowerback 0.73925 1.00433 -0.334768
upperback -3.4111 1.35782 0.751828
thorax -3.94917 0.700541 0.904797
lowerneck -9.85109 -2.51419 -3.12545
upperneck 30.9294 -3.97241 3.253
head 11.8681 -1.7595 1.24467
rclavicle 1.31571e-014 2.78299e-015
rhumerus -38.1369 48.1594 -75.7646
rradius 94.1383
rwrist -24.0114
rhand 9.88883 -41.7232
rfingers 7.12502
rthumb 35.0209 -68.2744
lclavicle 1.31571e-014 2.78299e-015
lhumerus -33.3923 -43.0757 80.3473
lradius 93.5435
lwrist 39.1702
lhand -1.7098 -4.24647
lfingers 7.12502
lthumb 23.9517 24.2795
rfemur 0 0 0
rtibia 0
rfoot 0 0
rtoes 0
lfemur -2.79042 -5.38356 -12.1361
ltibia 22.1538
lfoot -25.7462 17.1689
ltoes -54.5295
655
root -0.591132 18.6599 5.90551 1.21279 -1.99439 -2.5236
lowerback 0.753053 0.98344 -0.377542
upperback -3.34734 1.3304 0.813119
thorax -3.89283 0.688963 0.993372
lowerneck -10.1114 -2.48703 -3.11861
upperneck 30.6276 -3.8974 3.18874
head 11.7966 -1.73135 1.22419
rclavicle -2.50966e-015 2.5842e-015
rhumerus -39.018 45.4493 -77.1756
rradius 90.7201
rwrist -20.6139
rhand 7.16544 -42.8244
rfingers 7.12502
rthumb 32.4332 -69.9425
lclavicle -2.50966e-015 2.5842e-015
lhumerus -34.6326 -41.4791 81.9757
lradius 90.5016
lwrist 35.5752
lhand -3.19791 -4.78018
lfingers 7.12502
lthumb 22.524 23.9261
rfemur 0 0 0
rtibia 0
rfoot 0 0
rtoes 0
lfemur -2.67951 -5.29745 -12.114
ltibia 22.15
lfoot -25.7817 17.1093
ltoes -54.4584
656
root -0.589386 18.6579 5.90767 1.19819 -1.94655 -2.47286
lowerback 0.782154 0.918916 -0.450172
upperback -3.31327 1.24348 0.858038
thorax -3.87481 0.648531 1.08377
lowerneck -10.4045 -2.44566 -3.08249
upperneck 30.3188 -3.76766 2.99448
head 11.7241 -1.69075 1.15722
rclavicle 8.22472e-015 1.59028e-015
rhumerus -40.0375 42.3921 -78.6249
rradius 87.5998
rwrist -17.5005
rhand 2.35339 -42.9059
rfingers 7.12502
rthumb 27.8425 -70.8628
lclavicle 8.22472e-015 1.59028e-015
lhumerus -35.9809 -39.6245 83.4915
lradius 87.8443
lwrist 32.9347
lhand -4.76628 -5.36851
lfingers 7.12502
lthumb 21.018 23.5126
rfemur 0 0 0
rtibia 0
rfoot 0 0
rtoes 0
lfemur -2.6773 -5.35465 -12.1836
ltibia 22.1567
lfoot -25.7182 17.1758
ltoes -54.5129
657
root -0.586544 18.6564 5.91187 1.2223 -1.89251 -2.45291
lowerback 0.826354 0.848902 -0.439193
upperback -3.3082 1.1509 0.877972
thorax -3.89262 0.602416 1.10143
lowerneck -10.6427 -2.3822 -3.04632
upperneck 29.9342 -3.63737 2.90329
head 11.6134 -1.63819 1.12937
rclavicle -8.23714e-015 3.8763e-015
rhumerus -41.047 38.8523 -79.9109
rradius 84.7199
rwrist -13.852
rhand -0.184546 -42.7222
rfingers 7.12502
rthumb 25.4136 -71.0482
lclavicle -8.23714e-015 3.8763e-015
lhumerus -37.4304 -37.4945 84.8678
lradius 85.5712
lwrist 31.3351
lhand -6.14316 -5.82216
lfingers 7.12502
lthumb 19.6947 23.2002
rfemur 0 0 0
rtibia 0
rfoot 0 0
rtoes 0
lfemur -2.71843 -5.45229 -12.219
ltibia 22.1912
lfoot -25.6506 17.2624
ltoes -54.6479
658
root -0.577212 18.6573 5.90998 1.30804 -2.20258 -2.5134
lowerback 0.969211 0.904822 -0.227371
upperback -3.32529 1.23188 0.87024
thorax -3.98836 0.63615 0.968879
lowerneck -10.8764 -2.31701 -2.91472
upperneck 29.4687 -3.51651 2.78233
head 11.4691 -1.58319 1.07278
rclavicle -1.93691e-014 -3.37934e-015
rhumerus -41.9207 34.9978 -80.9076
rradius 82.0789
rwrist -10.1488
rhand -1.18814 -42.8844
rfingers 7.12502
rthumb 24.4519 -71.3438
lclavicle -1.93691e-014 -3.37934e-015
lhumerus -38.9337 -35.064 86.0904
lradius 83.5916
lwrist 30.7083
lhand -7.48399 -6.07786
lfingers 7.12502
lthumb 18.4053 23.0714
rfemur 0 0 0
rtibia 0
rfoot 0 0
rtoes 0
lfemur -2.74937 -5.56842 -12.2498
ltibia 22.2206
lfoot -25.8796 17.5926
ltoes -54.6299
659
root -0.552314 18.662 5.8977 1.54148 -3.08513 -2.54131
lowerback 1.1265 1.15639 0.180862
upperback -3.34639 1.57944 0.807306
thorax -4.09317 0.794954 0.656373
lowerneck -11.1786 -2.25716 -2.76059
upperneck 28.9115 -3.38015 2.57601
head 11.3026 -1.52874 0.982491
rclavicle -6.58474e-016 -5.06901e-015
rhumerus -42.6108 31.0087 -81.5595
rradius 79.7244
rwrist -6.9208
rhand -1.99838 -43.561
rfingers 7.12502
rthumb 23.6749 -72.1231
lclavicle -6.58474e-016 -5.06901e-015
lhumerus -40.2173 -32.2892 87.109
lradius 81.7005
lwrist 30.89
lhand -8.68479 -6.2594
lfingers 7.12502
lthumb 17.2498 22.995
rfemur 0 0 0
rtibia 0
rfoot 0 0
rtoes 0
lfemur -2.82839 -5.79131 -12.4901
ltibia 22.219
lfoot -26.5781 18.4031
ltoes -54.3547
660
root -0.550921 18.6614 5.90588 1.62763 -3.2581 -2.50393
lowerback 1.08734 1.16565 0.202586
upperback -3.24504 1.59109 0.804288
thorax -3.96512 0.799929 0.642581
lowerneck -11.4798 -2.21252 -2.78297
upperneck 28.3074 -3.27824 2.55137
head 11.1282 -1.48713 0.985229
rclavicle -2.13445e-014 -2.48481e-015
rhumerus -43.2774 26.9136 -81.918
rradius 77.7061
rwrist -4.92652
rhand -1.98139 -44.5774
rfingers 7.12502
rthumb 23.6912 -73.1374
lclavicle -2.13445e-014 -2.48481e-015
lhumerus -41.321 -29.3403 87.892
lradius 79.8922
lwrist 31.5046
lhand -9.45262 -6.53237
lfingers 7.12502
lthumb 16.5107 22.7851
rfemur 0 0 0
rtibia 0
rfoot 0 0
rtoes 0
lfemur -2.82488 -5.83176 -12.5601
ltibia 22.1905
lfoot -26.7989 18.4573
ltoes -54.2078
661
root -0.570308 18.6554 5.93024 1.47557 -2.81371 -2.44376
lowerback 1.08196 0.957592 -0.0818102
upperback -3.08707 1.30445 0.846424
thorax -3.80247 0.666298 0.85973
lowerneck -11.6562 -2.18432 -2.82421
upperneck 27.7083 -3.22932 2.6292
head 10.9368 -1.46042 1.02284
rclavicle 9.97651e-015 4.96962e-016
rhumerus -44.017 22.857 -82.0791
rradius 75.8158
rwrist -4.21021
rhand -2.97153 -44.7902
rfingers 7.12502
rthumb 22.7413 -73.4699
lclavicle 9.97651e-015 4.96962e-016
lhumerus -42.642 -26.5459 88.4866
lradius 78.3901
lwrist 32.174
lhand -10.1524 -6.77908
lfingers 7.12502
lthumb 15.8369 22.5932
rfemur 0 0 0
rtibia 0
rfoot 0 0
rtoes 0
lfemur -2.63887 -5.66819 -12.4527
ltibia 22.143
lfoot -26.4866 17.9169
ltoes -54.3209
662
root -0.577591 18.654 5.94584 1.50107 -2.80505 -2.3859
lowerback 1.11811 0.922528 -0.176568
upperback -3.04344 1.25375 0.822717
thorax -3.77838 0.643325 0.890402
lowerneck -11.7961 -2.20615 -2.79963
upperneck 27.1701 -3.26421 2.68654
head 10.7642 -1.46776 1.03133
rclavicle 2.35187e-014 1.98785e-016
rhumerus -44.7987 19.0423 -82.1731
rradius 73.8506
rwrist -4.00219
rhand -5.93844 -44.017
rfingers 7.12502
rthumb 19.8915 -73.019
lclavicle 2.35187e-014 1.98785e-016
lhumerus -43.9794 -24.0234 88.9688
lradius 76.976
lwrist 32.4565
lhand -10.8338 -7.02424
lfingers 7.12502
lthumb 15.1806 22.3989
rfemur 0 0 0
rtibia 0
rfoot 0 0
rtoes 0
lfemur -2.58399 -5.45344 -12.4516
ltibia 22.0837
lfoot -26.3434 17.7579
ltoes -54.3882
663
root -0.578107 18.6552 5.95503 1.58763 -2.95322 -2.37133
lowerback 1.07746 0.936531 -0.177649
upperback -2.94653 1.27174 0.827382
thorax -3.65539 0.651919 0.896555
lowerneck -11.91 -2.22948 -2.75064
upperneck 26.505 -3.26697 2.61412
head 10.5373 -1.47412 0.99315
rclavicle 4.69008e-015 -1.09332e-015
rhumerus -45.4529 15.595 -82.1391
rradius 71.9113
rwrist -4.16304
rhand -6.91618 -44.8077
rfingers 7.12502
rthumb 18.9514 -73.9045
lclavicle 4.69008e-015 -1.09332e-015
lhumerus -45.0471 -21.5846 89.3173
lradius 75.3928
lwrist 32.2203
lhand -11.2295 -7.88758
lfingers 7.12502
lthumb 14.7994 21.564
rfemur 0 0 0
rtibia 0
rfoot 0 0
rtoes 0
lfemur -2.6047 -5.24848 -12.447
ltibia 22.0462
lfoot -26.2853 17.7045
ltoes -54.347
